<svg xmlns="http://www.w3.org/2000/svg" viewBox="0 0 1400 820" font-family="'Segoe UI', -apple-system, sans-serif">
  <defs>
    <linearGradient id="aws-orange" x1="0%" y1="0%" x2="0%" y2="100%">
      <stop offset="0%" style="stop-color:#FF9900"/>
      <stop offset="100%" style="stop-color:#EC7211"/>
    </linearGradient>
    <linearGradient id="aws-blue" x1="0%" y1="0%" x2="0%" y2="100%">
      <stop offset="0%" style="stop-color:#2E73B8"/>
      <stop offset="100%" style="stop-color:#1B4B7A"/>
    </linearGradient>
    <linearGradient id="bedrock-green" x1="0%" y1="0%" x2="0%" y2="100%">
      <stop offset="0%" style="stop-color:#1DC4A1"/>
      <stop offset="100%" style="stop-color:#116D5B"/>
    </linearGradient>
    <filter id="shadow" x="-2%" y="-2%" width="104%" height="104%">
      <feDropShadow dx="1" dy="2" stdDeviation="3" flood-opacity="0.15"/>
    </filter>
    <filter id="glow">
      <feGaussianBlur stdDeviation="2" result="blur"/>
      <feMerge><feMergeNode in="blur"/><feMergeNode in="SourceGraphic"/></feMerge>
    </filter>
  </defs>

  <!-- Background -->
  <rect width="1400" height="820" fill="#f8f9fa" rx="8"/>

  <!-- Title -->
  <text x="700" y="40" text-anchor="middle" font-size="24" font-weight="700" fill="#232F3E">AxonLLM — Architecture</text>
  <text x="700" y="62" text-anchor="middle" font-size="13" fill="#666">The Neural Control Plane for Enterprise LLMs</text>

  <!-- Users Section -->
  <g transform="translate(30, 320)">
    <rect width="100" height="100" rx="12" fill="#232F3E" filter="url(#shadow)"/>
    <text x="50" y="45" text-anchor="middle" font-size="28" fill="#fff">👤</text>
    <text x="50" y="70" text-anchor="middle" font-size="10" fill="#fff" font-weight="600">Users</text>
    <text x="50" y="85" text-anchor="middle" font-size="9" fill="#aaa">Applications</text>
  </g>

  <!-- Arrow: Users → CloudFront -->
  <path d="M135 370 L175 370" stroke="#FF9900" stroke-width="2.5" fill="none" marker-end="url(#arrow)"/>
  <defs><marker id="arrow" viewBox="0 0 10 10" refX="9" refY="5" markerWidth="6" markerHeight="6" orient="auto"><path d="M 0 0 L 10 5 L 0 10 z" fill="#FF9900"/></marker></defs>

  <!-- CloudFront -->
  <g transform="translate(180, 320)" filter="url(#shadow)">
    <rect width="110" height="100" rx="12" fill="#8C4FFF"/>
    <text x="55" y="35" text-anchor="middle" font-size="22" fill="#fff">🌐</text>
    <text x="55" y="58" text-anchor="middle" font-size="11" fill="#fff" font-weight="700">CloudFront</text>
    <text x="55" y="74" text-anchor="middle" font-size="9" fill="#ddd">HTTPS + TLS</text>
    <text x="55" y="88" text-anchor="middle" font-size="9" fill="#ddd">Edge Caching</text>
  </g>

  <!-- Arrow: CloudFront → ALB -->
  <path d="M295 370 L335 370" stroke="#8C4FFF" stroke-width="2.5" fill="none" marker-end="url(#arrow-purple)"/>
  <defs><marker id="arrow-purple" viewBox="0 0 10 10" refX="9" refY="5" markerWidth="6" markerHeight="6" orient="auto"><path d="M 0 0 L 10 5 L 0 10 z" fill="#8C4FFF"/></marker></defs>

  <!-- ALB -->
  <g transform="translate(340, 320)" filter="url(#shadow)">
    <rect width="110" height="100" rx="12" fill="#8C4FFF"/>
    <text x="55" y="35" text-anchor="middle" font-size="22" fill="#fff">⚖️</text>
    <text x="55" y="58" text-anchor="middle" font-size="11" fill="#fff" font-weight="700">ALB</text>
    <text x="55" y="74" text-anchor="middle" font-size="9" fill="#ddd">Health Checks</text>
    <text x="55" y="88" text-anchor="middle" font-size="9" fill="#ddd">Sticky Sessions</text>
  </g>

  <!-- VPC Box -->
  <rect x="480" y="85" width="540" height="650" rx="8" fill="none" stroke="#248814" stroke-width="2" stroke-dasharray="8,4"/>
  <text x="500" y="105" font-size="12" fill="#248814" font-weight="700">VPC — us-east-1</text>

  <!-- ECS Cluster Box -->
  <rect x="500" y="115" width="500" height="310" rx="8" fill="#FFF7E6" stroke="#FF9900" stroke-width="2"/>
  <text x="520" y="138" font-size="12" fill="#D86613" font-weight="700">ECS Fargate Cluster (Auto Scaling 2–10)</text>

  <!-- Arrow: ALB → Tasks -->
  <path d="M455 370 L495 300" stroke="#FF9900" stroke-width="2" fill="none" marker-end="url(#arrow)"/>
  <path d="M455 370 L495 400" stroke="#FF9900" stroke-width="2" fill="none" marker-end="url(#arrow)"/>

  <!-- Task 1 -->
  <g transform="translate(510, 155)" filter="url(#shadow)">
    <rect width="220" height="120" rx="8" fill="#fff" stroke="#FF9900" stroke-width="1.5"/>
    <rect width="220" height="28" rx="8" fill="url(#aws-orange)"/>
    <rect x="0" y="28" width="220" height="0" fill="url(#aws-orange)"/>
    <text x="110" y="19" text-anchor="middle" font-size="11" fill="#fff" font-weight="700">AxonLLM Task (1 vCPU / 2GB)</text>
    <text x="15" y="48" font-size="9" fill="#333">▸ Auth (OIDC / API Key)</text>
    <text x="15" y="62" font-size="9" fill="#333">▸ Policy Hierarchy + Quota</text>
    <text x="15" y="76" font-size="9" fill="#333">▸ Injection Detect + PII Redact</text>
    <text x="15" y="90" font-size="9" fill="#333">▸ Router (5 strategies + Ensemble)</text>
    <text x="15" y="104" font-size="9" fill="#333">▸ Audit Trail + Cost Track</text>
  </g>

  <!-- Task 2 -->
  <g transform="translate(510, 290)" filter="url(#shadow)">
    <rect width="220" height="120" rx="8" fill="#fff" stroke="#FF9900" stroke-width="1.5"/>
    <rect width="220" height="28" rx="8" fill="url(#aws-orange)"/>
    <text x="110" y="19" text-anchor="middle" font-size="11" fill="#fff" font-weight="700">AxonLLM Task (1 vCPU / 2GB)</text>
    <text x="15" y="48" font-size="9" fill="#333">▸ Auth (OIDC / API Key)</text>
    <text x="15" y="62" font-size="9" fill="#333">▸ Policy Hierarchy + Quota</text>
    <text x="15" y="76" font-size="9" fill="#333">▸ Injection Detect + PII Redact</text>
    <text x="15" y="90" font-size="9" fill="#333">▸ Router (5 strategies + Ensemble)</text>
    <text x="15" y="104" font-size="9" fill="#333">▸ Audit Trail + Cost Track</text>
  </g>

  <!-- Admin Dashboard -->
  <g transform="translate(760, 155)" filter="url(#shadow)">
    <rect width="220" height="80" rx="8" fill="#fff" stroke="#147EBA" stroke-width="1.5"/>
    <rect width="220" height="24" rx="8" fill="url(#aws-blue)"/>
    <text x="110" y="17" text-anchor="middle" font-size="10" fill="#fff" font-weight="700">Admin Dashboard</text>
    <text x="15" y="42" font-size="9" fill="#333">▸ 9 pages: Overview, Efficiency, Policies</text>
    <text x="15" y="56" font-size="9" fill="#333">▸ Audit Trail, API Keys, Regions</text>
    <text x="15" y="70" font-size="9" fill="#333">▸ Chat UI + Playground + Routing</text>
  </g>

  <!-- Multi-Region -->
  <g transform="translate(760, 260)" filter="url(#shadow)">
    <rect width="220" height="80" rx="8" fill="#fff" stroke="#D6B656" stroke-width="1.5"/>
    <rect width="220" height="24" rx="8" fill="#FFF2CC"/>
    <text x="110" y="17" text-anchor="middle" font-size="10" fill="#7A6B2A" font-weight="700">Multi-Region Router</text>
    <text x="15" y="42" font-size="9" fill="#333">▸ Hub-and-spoke topology</text>
    <text x="15" y="56" font-size="9" fill="#333">▸ Active-passive / Active-active</text>
    <text x="15" y="70" font-size="9" fill="#333">▸ Data residency zones</text>
  </g>

  <!-- Cache -->
  <g transform="translate(760, 360)" filter="url(#shadow)">
    <rect width="220" height="55" rx="8" fill="#fff" stroke="#82B366" stroke-width="1.5"/>
    <rect width="220" height="24" rx="8" fill="#D5E8D4"/>
    <text x="110" y="17" text-anchor="middle" font-size="10" fill="#4A7A3A" font-weight="700">Response Cache (LRU)</text>
    <text x="15" y="42" font-size="9" fill="#333">▸ Semantic dedup · 10K entries · TTL</text>
  </g>

  <!-- DynamoDB -->
  <g transform="translate(510, 470)" filter="url(#shadow)">
    <rect width="150" height="90" rx="8" fill="#3334B9"/>
    <text x="75" y="30" text-anchor="middle" font-size="18" fill="#fff">🗄️</text>
    <text x="75" y="50" text-anchor="middle" font-size="11" fill="#fff" font-weight="700">DynamoDB</text>
    <text x="75" y="66" text-anchor="middle" font-size="9" fill="#ccc">audit-trail</text>
    <text x="75" y="79" text-anchor="middle" font-size="9" fill="#ccc">api-keys · policies</text>
  </g>

  <!-- Secrets Manager -->
  <g transform="translate(690, 470)" filter="url(#shadow)">
    <rect width="150" height="90" rx="8" fill="#BF0816"/>
    <text x="75" y="30" text-anchor="middle" font-size="18" fill="#fff">🔐</text>
    <text x="75" y="50" text-anchor="middle" font-size="11" fill="#fff" font-weight="700">Secrets Manager</text>
    <text x="75" y="66" text-anchor="middle" font-size="9" fill="#ccc">Anthropic API Key</text>
    <text x="75" y="79" text-anchor="middle" font-size="9" fill="#ccc">OpenAI API Key</text>
  </g>

  <!-- CloudWatch -->
  <g transform="translate(870, 470)" filter="url(#shadow)">
    <rect width="130" height="90" rx="8" fill="#BC1356"/>
    <text x="65" y="30" text-anchor="middle" font-size="18" fill="#fff">📊</text>
    <text x="65" y="50" text-anchor="middle" font-size="11" fill="#fff" font-weight="700">CloudWatch</text>
    <text x="65" y="66" text-anchor="middle" font-size="9" fill="#ccc">Logs</text>
    <text x="65" y="79" text-anchor="middle" font-size="9" fill="#ccc">Container Insights</text>
  </g>

  <!-- Providers Section -->
  <rect x="1050" y="85" width="330" height="650" rx="8" fill="none" stroke="#147EBA" stroke-width="2" stroke-dasharray="8,4"/>
  <text x="1070" y="107" font-size="12" fill="#147EBA" font-weight="700">LLM Providers</text>

  <!-- Bedrock Runtime -->
  <g transform="translate(1070, 120)" filter="url(#shadow)">
    <rect width="290" height="100" rx="8" fill="url(#bedrock-green)"/>
    <text x="145" y="28" text-anchor="middle" font-size="12" fill="#fff" font-weight="700">Amazon Bedrock Runtime</text>
    <text x="145" y="46" text-anchor="middle" font-size="10" fill="#ddd">Converse API · SigV4 Auth</text>
    <line x1="20" y1="56" x2="270" y2="56" stroke="rgba(255,255,255,0.2)" stroke-width="1"/>
    <text x="145" y="72" text-anchor="middle" font-size="9" fill="#ccc">Claude · Nova · Llama · DeepSeek</text>
    <text x="145" y="88" text-anchor="middle" font-size="9" fill="#ccc">Mistral · Qwen · GPT-OSS</text>
  </g>

  <!-- Bedrock Mantle -->
  <g transform="translate(1070, 240)" filter="url(#shadow)">
    <rect width="290" height="100" rx="8" fill="#0D9668"/>
    <text x="145" y="28" text-anchor="middle" font-size="12" fill="#fff" font-weight="700">Amazon Bedrock Mantle</text>
    <text x="145" y="46" text-anchor="middle" font-size="10" fill="#ddd">Responses API + Messages API · SigV4</text>
    <line x1="20" y1="56" x2="270" y2="56" stroke="rgba(255,255,255,0.2)" stroke-width="1"/>
    <text x="145" y="72" text-anchor="middle" font-size="9" fill="#ccc">GPT-5.5 · Claude Opus 4.8 · Grok 4.3</text>
    <text x="145" y="88" text-anchor="middle" font-size="9" fill="#ccc">Mythos 5 · DeepSeek V3.2</text>
  </g>

  <!-- Anthropic Direct -->
  <g transform="translate(1070, 360)" filter="url(#shadow)">
    <rect width="140" height="70" rx="8" fill="#D4A574"/>
    <text x="70" y="28" text-anchor="middle" font-size="11" fill="#fff" font-weight="700">Anthropic</text>
    <text x="70" y="46" text-anchor="middle" font-size="9" fill="#fff">Direct API</text>
    <text x="70" y="60" text-anchor="middle" font-size="9" fill="#eee">Claude (all)</text>
  </g>

  <!-- OpenAI Direct -->
  <g transform="translate(1220, 360)" filter="url(#shadow)">
    <rect width="140" height="70" rx="8" fill="#74AA9C"/>
    <text x="70" y="28" text-anchor="middle" font-size="11" fill="#fff" font-weight="700">OpenAI</text>
    <text x="70" y="46" text-anchor="middle" font-size="9" fill="#fff">Direct API</text>
    <text x="70" y="60" text-anchor="middle" font-size="9" fill="#eee">GPT · o3 · o4</text>
  </g>

  <!-- Azure / Vertex / Cohere -->
  <g transform="translate(1070, 450)" filter="url(#shadow)">
    <rect width="290" height="50" rx="8" fill="#E8E8E8" stroke="#B3B3B3" stroke-dasharray="4,3"/>
    <text x="145" y="20" text-anchor="middle" font-size="10" fill="#555" font-weight="600">Azure OpenAI · Google Vertex AI · Cohere</text>
    <text x="145" y="38" text-anchor="middle" font-size="9" fill="#888">Adapter ready — plug in credentials</text>
  </g>

  <!-- Arrows: Tasks → Providers -->
  <path d="M735 230 L1065 170" stroke="#116D5B" stroke-width="2" fill="none" marker-end="url(#arrow-green)"/>
  <path d="M735 350 L1065 290" stroke="#0D9668" stroke-width="2" fill="none" marker-end="url(#arrow-green)"/>
  <path d="M735 280 L1065 395" stroke="#D4A574" stroke-width="1.5" fill="none" stroke-dasharray="5,3" marker-end="url(#arrow-tan)"/>
  <path d="M735 380 L1215 395" stroke="#74AA9C" stroke-width="1.5" fill="none" stroke-dasharray="5,3" marker-end="url(#arrow-teal)"/>
  <defs>
    <marker id="arrow-green" viewBox="0 0 10 10" refX="9" refY="5" markerWidth="6" markerHeight="6" orient="auto"><path d="M 0 0 L 10 5 L 0 10 z" fill="#116D5B"/></marker>
    <marker id="arrow-tan" viewBox="0 0 10 10" refX="9" refY="5" markerWidth="6" markerHeight="6" orient="auto"><path d="M 0 0 L 10 5 L 0 10 z" fill="#D4A574"/></marker>
    <marker id="arrow-teal" viewBox="0 0 10 10" refX="9" refY="5" markerWidth="6" markerHeight="6" orient="auto"><path d="M 0 0 L 10 5 L 0 10 z" fill="#74AA9C"/></marker>
  </defs>

  <!-- Labels on arrows -->
  <text x="880" y="188" font-size="9" fill="#116D5B" font-weight="600">SigV4</text>
  <text x="880" y="308" font-size="9" fill="#0D9668" font-weight="600">SigV4</text>
  <text x="880" y="348" font-size="9" fill="#D4A574" font-weight="600">API Key</text>
  <text x="960" y="398" font-size="9" fill="#74AA9C" font-weight="600">API Key</text>

  <!-- Request Pipeline (bottom) -->
  <rect x="30" y="600" width="1340" height="200" rx="8" fill="#fff" stroke="#ddd" filter="url(#shadow)"/>
  <text x="700" y="625" text-anchor="middle" font-size="13" fill="#232F3E" font-weight="700">Request Pipeline (15 Steps)</text>

  <!-- Pipeline steps -->
  <g transform="translate(50, 645)">
    <rect width="80" height="35" rx="5" fill="#DAE8FC" stroke="#6C8EBF"/>
    <text x="40" y="15" text-anchor="middle" font-size="8" fill="#333" font-weight="700">1. Auth</text>
    <text x="40" y="27" text-anchor="middle" font-size="7" fill="#555">OIDC/Key</text>
  </g>
  <g transform="translate(140, 645)">
    <rect width="80" height="35" rx="5" fill="#D5E8D4" stroke="#82B366"/>
    <text x="40" y="15" text-anchor="middle" font-size="8" fill="#333" font-weight="700">2. Quota</text>
    <text x="40" y="27" text-anchor="middle" font-size="7" fill="#555">Hierarchy</text>
  </g>
  <g transform="translate(230, 645)">
    <rect width="80" height="35" rx="5" fill="#F8CECC" stroke="#B85450"/>
    <text x="40" y="15" text-anchor="middle" font-size="8" fill="#333" font-weight="700">3. Inject</text>
    <text x="40" y="27" text-anchor="middle" font-size="7" fill="#555">Detection</text>
  </g>
  <g transform="translate(320, 645)">
    <rect width="80" height="35" rx="5" fill="#F8CECC" stroke="#B85450"/>
    <text x="40" y="15" text-anchor="middle" font-size="8" fill="#333" font-weight="700">4. PII</text>
    <text x="40" y="27" text-anchor="middle" font-size="7" fill="#555">Redact</text>
  </g>
  <g transform="translate(410, 645)">
    <rect width="80" height="35" rx="5" fill="#D5E8D4" stroke="#82B366"/>
    <text x="40" y="15" text-anchor="middle" font-size="8" fill="#333" font-weight="700">5. Rate</text>
    <text x="40" y="27" text-anchor="middle" font-size="7" fill="#555">Limit</text>
  </g>
  <g transform="translate(500, 645)">
    <rect width="80" height="35" rx="5" fill="#D5E8D4" stroke="#82B366"/>
    <text x="40" y="15" text-anchor="middle" font-size="8" fill="#333" font-weight="700">6. Access</text>
    <text x="40" y="27" text-anchor="middle" font-size="7" fill="#555">Check</text>
  </g>
  <g transform="translate(590, 645)">
    <rect width="80" height="35" rx="5" fill="#D5E8D4" stroke="#82B366"/>
    <text x="40" y="15" text-anchor="middle" font-size="8" fill="#333" font-weight="700">7. Budget</text>
    <text x="40" y="27" text-anchor="middle" font-size="7" fill="#555">Check</text>
  </g>
  <g transform="translate(680, 645)">
    <rect width="80" height="35" rx="5" fill="#F8CECC" stroke="#B85450"/>
    <text x="40" y="15" text-anchor="middle" font-size="8" fill="#333" font-weight="700">8. Guard</text>
    <text x="40" y="27" text-anchor="middle" font-size="7" fill="#555">Rails</text>
  </g>
  <g transform="translate(770, 645)">
    <rect width="80" height="35" rx="5" fill="#E1D5E7" stroke="#9673A6"/>
    <text x="40" y="15" text-anchor="middle" font-size="8" fill="#333" font-weight="700">9. Cache</text>
    <text x="40" y="27" text-anchor="middle" font-size="7" fill="#555">Lookup</text>
  </g>
  <g transform="translate(50, 695)">
    <rect width="80" height="35" rx="5" fill="#FFF2CC" stroke="#D6B656"/>
    <text x="40" y="15" text-anchor="middle" font-size="8" fill="#333" font-weight="700">10. Region</text>
    <text x="40" y="27" text-anchor="middle" font-size="7" fill="#555">Route</text>
  </g>
  <g transform="translate(140, 695)">
    <rect width="80" height="35" rx="5" fill="#FFF2CC" stroke="#D6B656"/>
    <text x="40" y="15" text-anchor="middle" font-size="8" fill="#333" font-weight="700">11. Provider</text>
    <text x="40" y="27" text-anchor="middle" font-size="7" fill="#555">Route</text>
  </g>
  <g transform="translate(230, 695)">
    <rect width="90" height="35" rx="5" fill="url(#bedrock-green)"/>
    <text x="45" y="15" text-anchor="middle" font-size="8" fill="#fff" font-weight="700">⚡ LLM Call</text>
    <text x="45" y="27" text-anchor="middle" font-size="7" fill="#ddd">Provider</text>
  </g>
  <g transform="translate(330, 695)">
    <rect width="80" height="35" rx="5" fill="#F8CECC" stroke="#B85450"/>
    <text x="40" y="15" text-anchor="middle" font-size="8" fill="#333" font-weight="700">12. Output</text>
    <text x="40" y="27" text-anchor="middle" font-size="7" fill="#555">Guard</text>
  </g>
  <g transform="translate(420, 695)">
    <rect width="80" height="35" rx="5" fill="#F8CECC" stroke="#B85450"/>
    <text x="40" y="15" text-anchor="middle" font-size="8" fill="#333" font-weight="700">13. PII</text>
    <text x="40" y="27" text-anchor="middle" font-size="7" fill="#555">Re-inject</text>
  </g>
  <g transform="translate(510, 695)">
    <rect width="80" height="35" rx="5" fill="#E1D5E7" stroke="#9673A6"/>
    <text x="40" y="15" text-anchor="middle" font-size="8" fill="#333" font-weight="700">14. Audit</text>
    <text x="40" y="27" text-anchor="middle" font-size="7" fill="#555">SHA-256</text>
  </g>
  <g transform="translate(600, 695)">
    <rect width="80" height="35" rx="5" fill="#D5E8D4" stroke="#82B366"/>
    <text x="40" y="15" text-anchor="middle" font-size="8" fill="#333" font-weight="700">15. Cost</text>
    <text x="40" y="27" text-anchor="middle" font-size="7" fill="#555">Track</text>
  </g>
  <g transform="translate(700, 695)">
    <rect width="80" height="35" rx="5" fill="#232F3E"/>
    <text x="40" y="15" text-anchor="middle" font-size="8" fill="#fff" font-weight="700">Response</text>
    <text x="40" y="27" text-anchor="middle" font-size="7" fill="#aaa">→ Client</text>
  </g>

  <!-- Pipeline arrows -->
  <g stroke="#FF9900" stroke-width="1.5" fill="none">
    <path d="M130 662 L140 662"/><path d="M220 662 L230 662"/><path d="M310 662 L320 662"/>
    <path d="M400 662 L410 662"/><path d="M490 662 L500 662"/><path d="M580 662 L590 662"/>
    <path d="M670 662 L680 662"/><path d="M760 662 L770 662"/>
    <path d="M850 662 Q860 662 860 680 Q860 712 50 712" stroke-dasharray="3,2"/>
    <path d="M130 712 L140 712"/><path d="M220 712 L230 712"/><path d="M320 712 L330 712"/>
    <path d="M410 712 L420 712"/><path d="M500 712 L510 712"/><path d="M590 712 L600 712"/>
    <path d="M680 712 L700 712"/>
  </g>

  <!-- Legend -->
  <g transform="translate(860, 650)">
    <text x="0" y="0" font-size="10" fill="#333" font-weight="700">Legend:</text>
    <rect x="0" y="8" width="14" height="14" rx="3" fill="#DAE8FC" stroke="#6C8EBF"/>
    <text x="20" y="19" font-size="9" fill="#555">Identity</text>
    <rect x="70" y="8" width="14" height="14" rx="3" fill="#D5E8D4" stroke="#82B366"/>
    <text x="90" y="19" font-size="9" fill="#555">Governance</text>
    <rect x="165" y="8" width="14" height="14" rx="3" fill="#F8CECC" stroke="#B85450"/>
    <text x="185" y="19" font-size="9" fill="#555">Security</text>
    <rect x="240" y="8" width="14" height="14" rx="3" fill="#FFF2CC" stroke="#D6B656"/>
    <text x="260" y="19" font-size="9" fill="#555">Routing</text>
    <rect x="310" y="8" width="14" height="14" rx="3" fill="#E1D5E7" stroke="#9673A6"/>
    <text x="330" y="19" font-size="9" fill="#555">Observability</text>
  </g>

  <!-- Key stats -->
  <g transform="translate(860, 690)">
    <text x="0" y="12" font-size="9" fill="#666">980 tests · 6 providers · 20+ models · &lt;50ms overhead</text>
    <text x="0" y="28" font-size="9" fill="#666">Apache-2.0 compatible · Python 3.11+ · MIT-0 License</text>
  </g>
</svg>
